<svg width="186" height="39" viewBox="0 0 186 39" fill="none" xmlns="http://www.w3.org/2000/svg">
<path d="M10.6406 6.20312C10.5781 6.10938 10.4688 6.01562 10.3125 5.92188C10.1875 5.82812 10.0312 5.75 9.84375 5.6875C9.65625 5.625 9.46875 5.60938 9.28125 5.64062C9.125 5.64062 9 5.70313 8.90625 5.82812C8.8125 5.98438 8.64062 6.57812 8.39062 7.60938C8.17188 8.60938 7.9375 9.85938 7.6875 11.3594C7.4375 12.8594 7.21875 14.5312 7.03125 16.375C6.84375 18.2188 6.75 20.0469 6.75 21.8594C6.75 23.1719 6.79688 24.5469 6.89062 25.9844C6.98438 27.3906 7.09375 28.6875 7.21875 29.875C7.375 31.0625 7.54688 32.0469 7.73438 32.8281C7.95312 33.5781 8.17188 33.9531 8.39062 33.9531C8.60938 33.9844 8.90625 33.75 9.28125 33.25C9.65625 32.75 10.0156 32.1875 10.3594 31.5625C10.7031 30.9062 11.0156 30.2812 11.2969 29.6875C11.6094 29.0625 11.8125 28.6406 11.9062 28.4219C12.0312 28.0781 12.2031 27.7031 12.4219 27.2969C12.6406 26.8594 12.8594 26.4688 13.0781 26.125C13.2969 25.75 13.5156 25.4531 13.7344 25.2344C13.9531 24.9844 14.1406 24.8594 14.2969 24.8594C14.4844 24.8594 14.6406 25.0469 14.7656 25.4219C14.9219 25.7969 15.0312 26.25 15.0938 26.7812C15.1875 27.2812 15.25 27.8125 15.2812 28.375C15.3125 28.9062 15.3281 29.3438 15.3281 29.6875C15.3281 30.3125 15.2031 31.0938 14.9531 32.0312C14.7344 32.9688 14.4375 33.875 14.0625 34.75C13.7188 35.625 13.3281 36.375 12.8906 37C12.4844 37.625 12.0938 37.9219 11.7188 37.8906C11.3438 37.8594 10.7344 37.6406 9.89062 37.2344C9.07812 36.8281 8.23438 36.3594 7.35938 35.8281C6.48438 35.2969 5.6875 34.7656 4.96875 34.2344C4.25 33.7031 3.82812 33.2812 3.70312 32.9688C3.54688 32.6875 3.3125 32.0156 3 30.9531C2.71875 29.8594 2.42188 28.5469 2.10938 27.0156C1.79688 25.4844 1.51562 23.7969 1.26562 21.9531C1.04688 20.1094 0.9375 18.25 0.9375 16.375C0.9375 14.5 0.953125 12.6562 0.984375 10.8438C1.01562 9 1.07812 7.35938 1.17188 5.92188C1.29688 4.48438 1.48438 3.32812 1.73438 2.45312C1.98438 1.54687 2.32812 1.0625 2.76562 1C3.64062 0.90625 4.59375 0.96875 5.625 1.1875C6.65625 1.375 7.6875 1.67188 8.71875 2.07812C9.75 2.48437 10.7344 2.95312 11.6719 3.48438C12.6406 3.98437 13.5 4.51562 14.25 5.07812C15 5.60938 15.5938 6.125 16.0312 6.625C16.5 7.125 16.75 7.54688 16.7812 7.89062C16.8125 8.42188 16.75 9.01562 16.5938 9.67188C16.4375 10.3281 16.25 10.9688 16.0312 11.5938C15.8125 12.1875 15.5781 12.7344 15.3281 13.2344C15.1094 13.7031 14.9375 14.0312 14.8125 14.2188C14.6562 14.4375 14.4688 14.6719 14.25 14.9219C14.0312 15.1719 13.7969 15.3906 13.5469 15.5781C13.3281 15.7656 13.0938 15.9062 12.8438 16C12.625 16.0625 12.4219 16.0156 12.2344 15.8594C12.1094 15.7656 11.9844 15.4688 11.8594 14.9688C11.7656 14.4688 11.6562 13.875 11.5312 13.1875C11.4375 12.5 11.3438 11.7656 11.25 10.9844C11.1562 10.1719 11.0625 9.42188 10.9688 8.73438C10.9062 8.04688 10.8438 7.46875 10.7812 7C10.7188 6.53125 10.6719 6.26563 10.6406 6.20312ZM44.3438 7.23438C44.5 7.42188 44.6562 7.95312 44.8125 8.82812C44.9688 9.70312 45.0781 10.6562 45.1406 11.6875C45.2344 12.7188 45.2656 13.6875 45.2344 14.5938C45.2344 15.5 45.1562 16.0938 45 16.375C44.875 16.5625 44.5625 16.9062 44.0625 17.4062C43.5625 17.875 42.9844 18.4062 42.3281 19C41.6719 19.5938 40.9844 20.1875 40.2656 20.7812C39.5781 21.3438 38.9688 21.8281 38.4375 22.2344C38.6875 22.7344 39 23.3906 39.375 24.2031C39.75 24.9844 40.1562 25.8281 40.5938 26.7344C41.0312 27.6094 41.4531 28.5156 41.8594 29.4531C42.2969 30.3906 42.6875 31.25 43.0312 32.0312C43.375 32.7812 43.6562 33.4219 43.875 33.9531C44.0938 34.4531 44.2031 34.75 44.2031 34.8438C44.2031 35 44.125 35.2188 43.9688 35.5C43.8438 35.7812 43.6719 36.0469 43.4531 36.2969C43.2344 36.5156 43 36.7031 42.75 36.8594C42.5 37.0156 42.2656 37.0469 42.0469 36.9531C41.9219 36.9219 41.6875 36.6719 41.3438 36.2031C41 35.7031 40.5781 35.0938 40.0781 34.375C39.6094 33.625 39.0781 32.7812 38.4844 31.8438C37.9219 30.9062 37.3438 29.9688 36.75 29.0312C36.1562 28.0625 35.5938 27.1406 35.0625 26.2656C34.5312 25.3594 34.0625 24.5625 33.6562 23.875C33.5938 27.125 33.5156 29.625 33.4219 31.375C33.3594 33.125 33.3125 34.4062 33.2812 35.2188C33.2188 36.1875 33.1562 36.7344 33.0938 36.8594C33 36.8594 32.7969 36.7344 32.4844 36.4844C32.1719 36.2031 31.8438 35.875 31.5 35.5C31.1562 35.125 30.8281 34.75 30.5156 34.375C30.2344 34 30.0625 33.7188 30 33.5312C29.9375 33.125 29.8438 31.9531 29.7188 30.0156C29.6562 29.1719 29.5938 28.125 29.5312 26.875C29.4688 25.625 29.3906 24.1094 29.2969 22.3281C29.2344 20.5469 29.1406 18.4531 29.0156 16.0469C28.8906 13.6406 28.7656 10.875 28.6406 7.75C28.0781 7.71875 27.625 7.71875 27.2812 7.75C26.9375 7.75 26.6719 7.76562 26.4844 7.79688C26.2969 7.82812 26.1562 7.84375 26.0625 7.84375C25.9688 7.8125 25.8906 7.73438 25.8281 7.60938C25.7031 7.35938 25.6094 6.9375 25.5469 6.34375C25.4844 5.71875 25.4531 5.125 25.4531 4.5625C25.4531 3.9375 25.5469 3.3125 25.7344 2.6875C25.8906 2.0625 26.0938 1.67188 26.3438 1.51562C26.4688 1.42188 26.9062 1.4375 27.6562 1.5625C28.4062 1.65625 29.2344 1.78125 30.1406 1.9375C31.0469 2.09375 31.9062 2.26562 32.7188 2.45312C33.5625 2.64062 34.1094 2.76562 34.3594 2.82812C34.5781 2.89063 34.9375 3 35.4375 3.15625C35.9375 3.28125 36.5156 3.46875 37.1719 3.71875C37.8281 3.9375 38.5156 4.1875 39.2344 4.46875C39.9844 4.75 40.6875 5.04688 41.3438 5.35938C42 5.67187 42.5938 5.98438 43.125 6.29688C43.6562 6.60937 44.0625 6.92188 44.3438 7.23438ZM33.7969 20.4531C34.0781 20.2969 34.4531 20 34.9219 19.5625C35.3906 19.0938 35.8906 18.5781 36.4219 18.0156C36.9844 17.4219 37.5469 16.8125 38.1094 16.1875C38.6719 15.5312 39.1719 14.9219 39.6094 14.3594C40.0781 13.7969 40.4531 13.3125 40.7344 12.9062C41.0156 12.5 41.1562 12.2344 41.1562 12.1094C41.1562 11.8906 40.9531 11.6406 40.5469 11.3594C40.1719 11.0469 39.6719 10.7344 39.0469 10.4219C38.4219 10.1094 37.6875 9.8125 36.8438 9.53125C36 9.21875 35.1406 8.95312 34.2656 8.73438L33.7969 20.4531ZM57.2812 6.8125C57.4375 6.53125 57.7656 6.17188 58.2656 5.73438C58.7656 5.26562 59.3594 4.79688 60.0469 4.32812C60.7656 3.85938 61.5312 3.4375 62.3438 3.0625C63.1562 2.65625 63.9688 2.39062 64.7812 2.26562C65.625 2.10937 66.4062 2.14063 67.125 2.35938C67.875 2.54688 68.5156 2.98438 69.0469 3.67188C69.3281 4.01563 69.5938 4.70312 69.8438 5.73438C70.0938 6.76562 70.3281 8.01562 70.5469 9.48438C70.7969 10.9219 71.0156 12.5312 71.2031 14.3125C71.3906 16.0625 71.5469 17.8594 71.6719 19.7031C71.7969 21.5156 71.875 23.3125 71.9062 25.0938C71.9688 26.8438 71.9688 28.4688 71.9062 29.9688C71.875 31.4375 71.7812 32.7031 71.625 33.7656C71.5 34.7969 71.2969 35.5156 71.0156 35.9219C70.4531 36.7344 69.5781 37.2812 68.3906 37.5625C67.2031 37.8438 65.9531 37.8438 64.6406 37.5625C63.3281 37.3125 62.0781 36.7812 60.8906 35.9688C59.7031 35.1562 58.8281 34.0625 58.2656 32.6875C57.8906 31.7812 57.5781 30.5469 57.3281 28.9844C57.1094 27.4219 56.9375 25.7344 56.8125 23.9219C56.6875 22.0781 56.6094 20.2031 56.5781 18.2969C56.5781 16.3906 56.5938 14.6406 56.625 13.0469C56.6875 11.4219 56.7656 10.0469 56.8594 8.92188C56.9844 7.79688 57.125 7.09375 57.2812 6.8125ZM66.4688 30.5781C66.6562 30.3906 66.7812 29.8906 66.8438 29.0781C66.9375 28.2344 66.9844 27.25 66.9844 26.125C67.0156 24.9688 67.0156 23.75 66.9844 22.4688C66.9844 21.1875 66.9844 20 66.9844 18.9062C66.9844 16.125 66.8906 13.9688 66.7031 12.4375C66.5156 10.9062 66.2969 9.76562 66.0469 9.01562C65.7656 8.14062 65.4531 7.59375 65.1094 7.375C64.6406 7.46875 64.25 7.625 63.9375 7.84375C63.625 8.03125 63.375 8.25 63.1875 8.5C62.9688 8.78125 62.7969 9.07812 62.6719 9.39062C62.5781 9.67188 62.4688 10.2188 62.3438 11.0312C62.25 11.8438 62.1562 12.8125 62.0625 13.9375C61.9688 15.0312 61.875 16.2344 61.7812 17.5469C61.7188 18.8281 61.6562 20.0938 61.5938 21.3438C61.5625 22.5938 61.5312 23.7812 61.5 24.9062C61.5 26 61.5156 26.9062 61.5469 27.625C61.6094 28.7188 61.8594 29.5156 62.2969 30.0156C62.7656 30.5156 63.2656 30.8438 63.7969 31C64.3281 31.125 64.8438 31.125 65.3438 31C65.875 30.875 66.25 30.7344 66.4688 30.5781ZM100.406 8.64062C100.438 9.10938 100.375 9.8125 100.219 10.75C100.094 11.6875 99.875 12.625 99.5625 13.5625C99.25 14.5 98.8438 15.3281 98.3438 16.0469C97.875 16.7344 97.3281 17.0781 96.7031 17.0781C96.3906 17.0781 96.125 16.8906 95.9062 16.5156C95.6875 16.1406 95.5 15.6562 95.3438 15.0625C95.1875 14.4688 95.0625 13.8125 94.9688 13.0938C94.875 12.3438 94.7812 11.625 94.6875 10.9375C94.625 10.25 94.5625 9.625 94.5 9.0625C94.4688 8.46875 94.4375 8.03125 94.4062 7.75C94.2812 7.5625 94.0469 7.375 93.7031 7.1875C93.3906 6.96875 93.1094 6.85938 92.8594 6.85938C92.5781 6.85938 92.2344 7.125 91.8281 7.65625C91.4531 8.1875 91.0938 8.8125 90.75 9.53125C90.4062 10.25 90.125 10.9688 89.9062 11.6875C89.6875 12.375 89.5938 12.9062 89.625 13.2812C89.625 13.5312 89.8594 13.9688 90.3281 14.5938C90.8281 15.2188 91.4375 15.9531 92.1562 16.7969C92.875 17.6406 93.6562 18.5625 94.5 19.5625C95.3438 20.5312 96.125 21.5 96.8438 22.4688C97.5625 23.4375 98.1719 24.3594 98.6719 25.2344C99.1719 26.1094 99.4375 26.8594 99.4688 27.4844C99.5312 28.2344 99.3594 29.2031 98.9531 30.3906C98.5781 31.5469 98.0938 32.6719 97.5 33.7656C96.9062 34.8594 96.2656 35.8125 95.5781 36.625C94.9219 37.4062 94.3281 37.8125 93.7969 37.8438C93.4531 37.875 93 37.7188 92.4375 37.375C91.875 37.0625 91.2656 36.6406 90.6094 36.1094C89.9531 35.5781 89.2812 35 88.5938 34.375C87.9375 33.7188 87.3125 33.0781 86.7188 32.4531C86.1562 31.8281 85.6719 31.2656 85.2656 30.7656C84.8906 30.2344 84.6719 29.8438 84.6094 29.5938C84.4844 29.2188 84.4062 28.7188 84.375 28.0938C84.375 27.4375 84.4062 26.8125 84.4688 26.2188C84.5625 25.5938 84.6719 25.0625 84.7969 24.625C84.9531 24.1562 85.1406 23.9219 85.3594 23.9219C85.5156 23.9219 85.7656 24.125 86.1094 24.5312C86.4844 24.9375 86.9062 25.4531 87.375 26.0781C87.8438 26.7031 88.3438 27.3906 88.875 28.1406C89.4375 28.8594 89.9688 29.5312 90.4688 30.1562C90.9688 30.7812 91.4219 31.3125 91.8281 31.75C92.2344 32.1562 92.5625 32.3438 92.8125 32.3125C93 32.3125 93.2031 32.1719 93.4219 31.8906C93.6406 31.5781 93.8438 31.2188 94.0312 30.8125C94.2188 30.375 94.375 29.9375 94.5 29.5C94.625 29.0625 94.6875 28.7188 94.6875 28.4688C94.6562 28.0938 94.3438 27.5625 93.75 26.875C93.1875 26.1562 92.4688 25.3594 91.5938 24.4844C90.75 23.5781 89.8281 22.6406 88.8281 21.6719C87.8594 20.7031 86.9375 19.7812 86.0625 18.9062C85.2188 18 84.5 17.1875 83.9062 16.4688C83.3438 15.75 83.0469 15.2031 83.0156 14.8281C82.9844 14.4531 83.0938 13.875 83.3438 13.0938C83.5938 12.2812 83.9219 11.375 84.3281 10.375C84.7656 9.375 85.25 8.35938 85.7812 7.32812C86.3125 6.29688 86.8594 5.34375 87.4219 4.46875C87.9844 3.59375 88.5312 2.89063 89.0625 2.35938C89.5938 1.79688 90.0625 1.51562 90.4688 1.51562C91 1.51562 91.6094 1.64062 92.2969 1.89062C92.9844 2.10937 93.6875 2.42188 94.4062 2.82812C95.1562 3.20312 95.875 3.64063 96.5625 4.14062C97.2812 4.64062 97.9219 5.15625 98.4844 5.6875C99.0469 6.1875 99.5 6.70312 99.8438 7.23438C100.188 7.73438 100.375 8.20312 100.406 8.64062ZM121.734 18.625C122.453 19 123.172 19.4062 123.891 19.8438C124.641 20.2812 125.328 20.7031 125.953 21.1094C126.578 21.4844 127.094 21.8438 127.5 22.1875C127.938 22.5 128.219 22.75 128.344 22.9375C128.5 23.1875 128.578 23.5781 128.578 24.1094C128.578 24.6094 128.531 25.1719 128.438 25.7969C128.375 26.3906 128.266 26.9844 128.109 27.5781C127.953 28.1406 127.781 28.5938 127.594 28.9375C127.375 29.375 126.875 29.9375 126.094 30.625C125.344 31.3125 124.5 32 123.562 32.6875C122.625 33.375 121.703 33.9844 120.797 34.5156C119.922 35.0469 119.25 35.375 118.781 35.5C118.438 35.5938 117.922 35.6875 117.234 35.7812C116.578 35.875 115.891 35.9531 115.172 36.0156C114.453 36.0781 113.797 36.125 113.203 36.1562C112.641 36.1562 112.297 36.125 112.172 36.0625C111.922 35.9062 111.703 35.6719 111.516 35.3594C111.359 35.0469 111.281 34.6406 111.281 34.1406C111.344 33.0469 111.469 32.2969 111.656 31.8906C111.719 31.7969 111.797 31.75 111.891 31.75C111.984 31.7188 112.141 31.7031 112.359 31.7031C112.578 31.7031 112.859 31.7031 113.203 31.7031C113.547 31.7031 114 31.6875 114.562 31.6562C114.406 30.0625 114.266 28.5469 114.141 27.1094C114.016 25.6719 113.906 24.4062 113.812 23.3125C113.688 22.0312 113.594 20.8281 113.531 19.7031C113.469 18.6094 113.375 17.3906 113.25 16.0469C113.156 14.8906 113.047 13.5469 112.922 12.0156C112.797 10.4844 112.656 8.82812 112.5 7.04688C112.219 7.04688 111.891 7.04688 111.516 7.04688C111.141 7.04688 110.766 7.04688 110.391 7.04688C110.047 7.01562 109.75 6.98437 109.5 6.95312C109.219 6.89062 109.047 6.8125 108.984 6.71875C108.859 6.53125 108.766 6.1875 108.703 5.6875C108.641 5.15625 108.609 4.64062 108.609 4.14062C108.609 3.60937 108.703 3.09375 108.891 2.59375C109.078 2.0625 109.297 1.71875 109.547 1.5625C109.609 1.53125 109.859 1.53125 110.297 1.5625C110.734 1.5625 111.266 1.60938 111.891 1.70312C112.516 1.76563 113.188 1.85938 113.906 1.98438C114.656 2.07812 115.359 2.1875 116.016 2.3125C116.672 2.40625 117.25 2.5 117.75 2.59375C118.25 2.6875 118.594 2.75 118.781 2.78125C119.094 2.84375 119.688 3.01562 120.562 3.29688C121.469 3.54688 122.438 3.84375 123.469 4.1875C124.5 4.53125 125.484 4.92187 126.422 5.35938C127.359 5.76562 128.016 6.17188 128.391 6.57812C128.547 6.73438 128.688 7.17188 128.812 7.89062C128.969 8.60938 129.078 9.40625 129.141 10.2812C129.234 11.1562 129.266 11.9844 129.234 12.7656C129.234 13.5156 129.156 14.0156 129 14.2656C128.875 14.4531 128.438 14.7812 127.688 15.25C126.938 15.7188 126.109 16.2031 125.203 16.7031C124.172 17.2656 123.016 17.9062 121.734 18.625ZM118.172 17.6875C118.578 17.5 119.125 17.125 119.812 16.5625C120.531 16 121.234 15.375 121.922 14.6875C122.641 13.9688 123.25 13.25 123.75 12.5312C124.281 11.7812 124.547 11.1406 124.547 10.6094C124.547 10.4531 124.375 10.25 124.031 10C123.719 9.75 123.281 9.5 122.719 9.25C122.156 9 121.484 8.75 120.703 8.5C119.953 8.21875 119.141 7.96875 118.266 7.75L118.172 17.6875ZM118.125 31.1406C119 30.9531 119.828 30.6562 120.609 30.25C121.391 29.8438 122.078 29.4062 122.672 28.9375C123.266 28.4375 123.734 27.9375 124.078 27.4375C124.422 26.9375 124.594 26.4844 124.594 26.0781C124.594 25.6719 124.328 25.2188 123.797 24.7188C123.297 24.2188 122.688 23.7188 121.969 23.2188C121.281 22.7188 120.578 22.2656 119.859 21.8594C119.141 21.4531 118.578 21.1562 118.172 20.9688L118.125 31.1406ZM141.328 6.8125C141.484 6.53125 141.812 6.17188 142.312 5.73438C142.812 5.26562 143.406 4.79688 144.094 4.32812C144.812 3.85938 145.578 3.4375 146.391 3.0625C147.203 2.65625 148.016 2.39062 148.828 2.26562C149.672 2.10937 150.453 2.14063 151.172 2.35938C151.922 2.54688 152.562 2.98438 153.094 3.67188C153.375 4.01563 153.641 4.70312 153.891 5.73438C154.141 6.76562 154.375 8.01562 154.594 9.48438C154.844 10.9219 155.062 12.5312 155.25 14.3125C155.438 16.0625 155.594 17.8594 155.719 19.7031C155.844 21.5156 155.922 23.3125 155.953 25.0938C156.016 26.8438 156.016 28.4688 155.953 29.9688C155.922 31.4375 155.828 32.7031 155.672 33.7656C155.547 34.7969 155.344 35.5156 155.062 35.9219C154.5 36.7344 153.625 37.2812 152.438 37.5625C151.25 37.8438 150 37.8438 148.688 37.5625C147.375 37.3125 146.125 36.7812 144.938 35.9688C143.75 35.1562 142.875 34.0625 142.312 32.6875C141.938 31.7812 141.625 30.5469 141.375 28.9844C141.156 27.4219 140.984 25.7344 140.859 23.9219C140.734 22.0781 140.656 20.2031 140.625 18.2969C140.625 16.3906 140.641 14.6406 140.672 13.0469C140.734 11.4219 140.812 10.0469 140.906 8.92188C141.031 7.79688 141.172 7.09375 141.328 6.8125ZM150.516 30.5781C150.703 30.3906 150.828 29.8906 150.891 29.0781C150.984 28.2344 151.031 27.25 151.031 26.125C151.062 24.9688 151.062 23.75 151.031 22.4688C151.031 21.1875 151.031 20 151.031 18.9062C151.031 16.125 150.938 13.9688 150.75 12.4375C150.562 10.9062 150.344 9.76562 150.094 9.01562C149.812 8.14062 149.5 7.59375 149.156 7.375C148.688 7.46875 148.297 7.625 147.984 7.84375C147.672 8.03125 147.422 8.25 147.234 8.5C147.016 8.78125 146.844 9.07812 146.719 9.39062C146.625 9.67188 146.516 10.2188 146.391 11.0312C146.297 11.8438 146.203 12.8125 146.109 13.9375C146.016 15.0312 145.922 16.2344 145.828 17.5469C145.766 18.8281 145.703 20.0938 145.641 21.3438C145.609 22.5938 145.578 23.7812 145.547 24.9062C145.547 26 145.562 26.9062 145.594 27.625C145.656 28.7188 145.906 29.5156 146.344 30.0156C146.812 30.5156 147.312 30.8438 147.844 31C148.375 31.125 148.891 31.125 149.391 31C149.922 30.875 150.297 30.7344 150.516 30.5781ZM184.969 1.84375C185.062 1.96875 184.891 2.60938 184.453 3.76562C184.047 4.89062 183.469 6.34375 182.719 8.125C181.969 9.90625 181.094 11.9219 180.094 14.1719C179.094 16.3906 178.062 18.6406 177 20.9219C177.875 23.1406 178.703 25.3125 179.484 27.4375C180.266 29.5312 180.938 31.4062 181.5 33.0625C182.094 34.6875 182.531 36 182.812 37C183.125 38.0312 183.219 38.5625 183.094 38.5938C182.875 38.625 182.547 38.5156 182.109 38.2656C181.703 38.0156 181.266 37.7031 180.797 37.3281C180.328 36.9531 179.891 36.5625 179.484 36.1562C179.109 35.75 178.828 35.3906 178.641 35.0781C178.172 34.1094 177.688 33.125 177.188 32.125C176.688 31.0938 176.234 30.1562 175.828 29.3125C175.359 28.3125 174.906 27.3438 174.469 26.4062C173.656 28.0625 172.875 29.625 172.125 31.0938C171.406 32.5625 170.766 33.8438 170.203 34.9375C169.641 36.0312 169.156 36.8906 168.75 37.5156C168.375 38.1719 168.141 38.5 168.047 38.5C167.766 38.5 167.516 38.3438 167.297 38.0312C167.109 37.7188 166.938 37.3438 166.781 36.9062C166.656 36.4688 166.578 36.0312 166.547 35.5938C166.516 35.125 166.531 34.7344 166.594 34.4219C167.219 32.7344 167.828 31.0625 168.422 29.4062C169.016 27.75 169.562 26.2656 170.062 24.9531C170.625 23.4219 171.172 21.9688 171.703 20.5938C170.984 19.0625 170.281 17.5625 169.594 16.0938C168.906 14.5938 168.281 13.2188 167.719 11.9688C167.188 10.7188 166.75 9.64062 166.406 8.73438C166.031 7.82812 165.797 7.17188 165.703 6.76562C165.547 6.10938 165.594 5.48437 165.844 4.89062C166.094 4.26562 166.406 3.71875 166.781 3.25C167.156 2.78125 167.547 2.42188 167.953 2.17188C168.359 1.92187 168.656 1.84375 168.844 1.9375C168.969 2.03125 169.203 2.40625 169.547 3.0625C169.891 3.6875 170.297 4.53125 170.766 5.59375C171.266 6.65625 171.812 7.90625 172.406 9.34375C173 10.75 173.625 12.25 174.281 13.8438C175.094 11.7812 175.828 9.96875 176.484 8.40625C177.141 6.8125 177.656 5.75 178.031 5.21875C178.438 4.5625 179.016 4 179.766 3.53125C180.516 3.03125 181.25 2.64062 181.969 2.35938C182.719 2.04688 183.375 1.85938 183.938 1.79688C184.531 1.70312 184.875 1.71875 184.969 1.84375Z" fill="#3DD683"/>
</svg>
